<?xml version="1.0" encoding="utf-8"?>
<!-- Generator: Adobe Illustrator 16.0.4, SVG Export Plug-In . SVG Version: 6.00 Build 0)  -->
<!DOCTYPE svg PUBLIC "-//W3C//DTD SVG 1.1//EN" "http://www.w3.org/Graphics/SVG/1.1/DTD/svg11.dtd">
<svg version="1.1" id="Ebene_1" xmlns:svg="http://www.w3.org/2000/svg"
	 xmlns="http://www.w3.org/2000/svg" xmlns:xlink="http://www.w3.org/1999/xlink" x="0px" y="0px" width="2138.52px"
	 height="268.39px" viewBox="-1129.354 331.341 2138.52 268.39" enable-background="new -1129.354 331.341 2138.52 268.39"
	 xml:space="preserve">
<title>Layer 1</title>
<g id="svg_25">
	<g id="svg_2_2_">
		<g id="svg_3_2_">
			<g id="svg_4_2_">
				<g id="svg_5_2_">
					<path id="svg_15_2_" fill="#EEE7D9" d="M-985.938,579.075c-10.031,2.129-21.167,3.705-30.174,3.705
						c-30.174,0-42.865-14.288-42.865-51.872V430.336h67.757v-16.417h-67.757v-82.578h-17.441v82.578h-52.937v16.417h52.937v100.572
						c0,47.635,17.973,68.29,58.75,68.29c10.03,0,21.167-1.597,35.455-5.302L-985.938,579.075z"/>
					<path id="svg_14_2_" fill="#EEE7D9" d="M-810.177,412.343c-36.52,0-65.097,13.756-83.643,29.109v-27.001h-57.686v16.417h39.713
						v146.099h-39.713v15.865h116.437v-15.865h-58.751V456.805c17.482-12.712,46.059-27.001,83.643-27.533V412.343z"/>
					<path id="svg_13_2_" fill="#EEE7D9" d="M-606.905,577.499L-606.905,577.499h-0.532V429.804l0,0v-16.417h-17.482v24.893
						c-16.949-17.994-40.736-29.642-69.845-29.642c-52.405,0-94.247,42.333-94.247,94.737c0,52.938,41.842,95.291,94.247,95.291
						c29.109,0,52.405-11.115,69.845-29.642v24.34h57.687v-15.865H-606.905L-606.905,577.499z M-624.919,547.837
						c-17.44,22.764-41.269,35.476-68.29,34.943c-43.93,0-78.32-35.987-78.32-79.405c0-42.865,34.391-78.873,78.32-78.873
						c27.021,0,50.849,12.713,68.29,35.476V547.837L-624.919,547.837z"/>
					<path id="svg_12_2_" fill="#EEE7D9" d="M-433.273,593.364h-0.532v-15.865h-39.713V414.451h-57.154v16.417H-491v146.631h-39.672
						v15.865H-433.273L-433.273,593.364z M-481.993,359.938c7.41,0,14.289-5.835,14.289-14.31c0-8.454-6.346-14.288-14.289-14.288
						c-8.475,0-14.821,5.834-14.821,14.288C-496.814,354.104-490.468,359.938-481.993,359.938z"/>
					<path id="svg_11_2_" fill="#EEE7D9" d="M-160.687,593.364h-1.064v-15.865h-40.204v-89.477
						c0-49.743-31.238-79.385-75.168-79.385c-29.109,0-54.534,11.115-71.483,30.174v-24.36h-57.154v16.417h39.713v146.631h-39.713
						v15.865h97.399v-15.865h-39.713V461.042c15.885-23.295,42.374-36.54,69.354-36.54c35.455,0,60.347,22.764,60.347,63.521v89.477
						h-39.713v15.865H-160.687L-160.687,593.364z"/>
					<path id="svg_10_2_" fill="#EEE7D9" d="M55.277,524.03L55.277,524.03H8.728c-4.79,19.59-22.231,32.814-44.995,32.814
						c-32.302,0-57.195-24.872-57.195-56.11s24.36-56.109,57.195-56.109c23.255,0,41.269,13.224,46.55,32.814h43.93v-69.866H11.88
						v13.756c-13.224-11.115-31.238-17.461-51.873-17.461c-57.154,0-98.996,40.757-98.996,96.866
						c0,56.11,43.397,97.399,102.721,97.399C14.009,598.134,48.932,567.96,55.277,524.03L55.277,524.03z"/>
					<path id="svg_9_2_" fill="#EEE7D9" d="M235.255,404.4c-32.262,0-57.686,10.051-76.232,23.295v-20.122H84.387v41.821h29.641
						v102.681H84.387v41.821h121.227v-41.821h-46.591v-87.86c17.482-6.366,42.906-12.18,76.232-13.244V404.4z"/>
					<path id="svg_8_2_" fill="#EEE7D9" d="M348.007,403.336c-56.622,0-100.552,41.289-100.552,97.398
						c0,56.643,43.93,98.996,100.552,98.996c56.13,0,100.592-42.354,100.592-98.996
						C448.599,444.625,404.137,403.336,348.007,403.336z M348.539,558.441c-32.303,0-55.558-25.937-55.558-57.707
						c0-31.238,23.255-56.109,55.558-56.109c31.238,0,55.065,24.871,55.065,56.109C403.604,532.505,379.777,557.909,348.539,558.441
						z"/>
					<path id="svg_7_2_" fill="#EEE7D9" d="M750.826,448.862h19.611v-41.821H678.32v41.821h25.424l-30.174,81.514l-42.906-123.335
						h-31.729l-42.374,122.271l-29.641-80.449h25.424v-41.821h-92.117v41.821h20.634l56.663,144.502h39.181l39.14-113.796
						l38.648,113.796h39.713l56.621-143.97V448.862z"/>
					<path id="svg_6_2_" fill="#EEE7D9" d="M1009.165,593.364v-41.821h-29.642V331.341h-75.168v41.821h29.642v47.123
						c-15.353-11.115-34.923-17.481-57.153-17.481c-51.873,0-93.715,43.418-93.715,97.398c0,54.002,41.842,97.399,93.715,97.399
						c22.763,0,41.801-5.813,57.153-17.462v13.225H1009.165L1009.165,593.364z M883.722,558.441
						c-31.771,0-55.065-27.001-55.065-58.239c0-30.706,23.295-57.686,55.065-57.686c17.44,0,34.391,5.813,50.275,23.274v70.931
						C917.58,552.607,901.162,558.441,883.722,558.441z"/>
				</g>
			</g>
		</g>
	</g>
</g>
</svg>
