<?xml version="1.0"?>
<svg width="90" height="120" xmlns="http://www.w3.org/2000/svg" xmlns:svg="http://www.w3.org/2000/svg">
 <style type="text/css">.st0{fill:#EEE7D9;}</style>
 <g>
  <title>Layer 1</title>
  <g id="XMLID_2_">
   <g id="XMLID_52_">
    <g id="XMLID_53_">
     <g id="XMLID_54_">
      <g id="XMLID_56_">
       <path id="XMLID_59_" class="st0" d="m72.199997,57c-3.5,11.599998 -14.199997,20.099998 -26.899998,20.099998s-23.5,-8.5 -27,-20.099998l-11.599999,0c2.8,13.300003 12.3,24.199997 24.8,28.900002l0,29l27.599998,0l0,-29c12.5,-4.700005 22,-15.599998 24.800003,-28.900002l-11.700005,0z"/>
       <path id="XMLID_58_" class="st0" d="m18.299999,41c3.5,-11.6 14.200001,-20.1 26.900002,-20.1s23.499996,8.4 26.999996,20.1l11.700005,0c-3.700005,-18 -19.599998,-31.5 -38.600002,-31.5s-34.9,13.5 -38.599999,31.5l11.599999,0z"/>
      </g>
      <circle id="XMLID_55_" class="st0" cx="45.3" cy="49" r="12.8"/>
     </g>
    </g>
   </g>
  </g>
 </g>
</svg>