<?xml version="1.0"?>
<svg width="430" height="100" xmlns="http://www.w3.org/2000/svg" xmlns:svg="http://www.w3.org/2000/svg" xmlns:xlink="http://www.w3.org/1999/xlink">
 <!-- Created with SVG-edit - http://svg-edit.googlecode.com/ -->
 <defs>
  <symbol viewBox="0 0 612 792" id="svg_24" xmlns:xlink="http://www.w3.org/1999/xlink" xmlns="http://www.w3.org/2000/svg">
   <style type="text/css">.st0{fill:#EEE7D9;}</style>
   <g id="svg_2">
    <g id="svg_16">
     <g id="svg_17">
      <g id="svg_18">
       <g id="svg_19">
        <g id="svg_21">
         <path d="m518.900024,53.599998c-3.5,11.599998 -14.200012,20.099998 -26.899994,20.099998c-12.700012,0 -23.5,-8.5 -26.899994,-20.099998l-11.600006,0c2.799988,13.300003 12.299988,24.200005 24.799988,28.900002l0,29l27.600006,0l0,-29c12.5,-4.699997 22,-15.599998 24.799988,-28.900002l-11.799988,0z" class="st0" id="svg_23"/>
         <path d="m465.100006,37.599998c3.5,-11.599998 14.200012,-20.099998 26.899994,-20.099998c12.700012,0 23.5,8.5 26.900024,20.099998l11.700012,0c-3.700012,-17.899998 -19.600037,-31.399999 -38.600037,-31.399999c-19,0 -34.899994,13.500001 -38.600006,31.399999l11.699951,0l0,0l0,0l0.000031,0l0.000031,0z" class="st0" id="svg_22"/>
        </g>
        <circle r="12.8" cy="45.6" cx="492" class="st0" id="svg_20"/>
       </g>
      </g>
     </g>
    </g>
    <g id="svg_3">
     <g id="svg_4">
      <g id="svg_5">
       <path d="m40.299999,110.400002c-2.700001,0.699997 -4.799999,1 -6.700001,1c-7.699999,0 -11.099998,-3.900002 -11.099998,-12.900002l0,-19l-10,0l0,-3.099998l10,0l0,-15.600002l3.299999,0l0,15.600002l12.799999,0l0,3.099998l-12.799999,0l0,19c0,7.099998 2.400002,9.800003 8.100002,9.800003c1.699997,0 3.799999,-0.300003 5.699997,-0.700005l0.700001,2.800003z" class="st0" id="svg_15"/>
       <path d="m72.800003,79.300003c-7.100014,0.099998 -12.500004,2.799995 -15.800003,5.199997l0,22.699997l11.099998,0l0,3l-22,0l0,-3l7.5,0l0,-27.599998l-7.5,0l0,-3.099998l10.900002,0l0,5.099998c3.5,-2.900002 8.900002,-5.5 15.800003,-5.5l0,3.200005z" class="st0" id="svg_14"/>
       <path d="m111.199997,107.300003l7.5,0l0,3l-10.899986,0l0,-4.600014c-3.300003,3.5 -7.699997,5.600014 -13.199997,5.600014c-9.900002,0 -17.800003,-8 -17.800003,-18c0,-9.900002 7.899986,-17.900002 17.800003,-17.900002c5.5,0 10,2.199997 13.199997,5.599998l0,-4.699997l3.300003,0l0,3.099998l0,0l0,27.900002l0.099998,0l-0.000023,0l0.000008,0zm-3.399986,-5.600014l0,-16.599998c-3.300003,-4.300003 -7.800003,-6.700005 -12.900002,-6.700005c-8.299995,0 -14.799995,6.800003 -14.799995,14.900002c0,8.200005 6.5,15 14.799995,15c5.099998,0.099998 9.599998,-2.299995 12.900002,-6.600006l0,0.000008z" class="st0" id="svg_13"/>
       <path d="m144,110.300003l-18.400002,0l0,-3l7.500008,0l0,-27.700005l-7.500008,0l0,-3.099998l10.799995,0l0,30.800003l7.5,0l0,3l0.100021,0l-0.000015,0zm-12,-46.800003c0,-1.599998 1.199997,-2.700001 2.800003,-2.700001c1.5,0 2.699997,1.100002 2.699997,2.700001c0,1.599998 -1.300003,2.699997 -2.699997,2.699997c-1.600006,0 -2.800003,-1.099998 -2.800003,-2.699997z" class="st0" id="svg_12"/>
       <path d="m195.5,110.300003l-18.399994,0l0,-3l7.5,0l0,-16.900002c0,-7.700005 -4.700012,-12 -11.400009,-12c-5.099991,0 -10.099991,2.5 -13.099991,6.900002l0,22l7.5,0l0,3l-18.400009,0l0,-3l7.5,0l0,-27.700005l-7.5,0l0,-3.099998l10.800003,0l0,4.599998c3.199997,-3.599998 8,-5.699997 13.5,-5.699997c8.300003,0 14.199997,5.599998 14.199997,15l0,16.900002l7.600006,0l0,3l0.200012,0l-0.000015,0z" class="st0" id="svg_11"/>
       <path d="m236.300003,97.199997c-1.199997,8.300003 -7.800003,14 -17.300003,14c-11.199997,0 -19.399994,-7.799995 -19.399994,-18.399986c0,-10.600014 7.899994,-18.300003 18.699997,-18.300003c3.900024,0 7.300003,1.200005 9.800003,3.300003l0,-2.600014l8,0l0,13.200005l-8.300003,0c-1,-3.700005 -4.400009,-6.200005 -8.799988,-6.200005c-6.200012,0 -10.799957,4.700005 -10.799957,10.600014c0,5.899986 4.699966,10.599998 10.799957,10.599998c4.299988,0 7.600021,-2.5 8.5,-6.199997l8.799988,0l0,-0.000023l0,0.000008z" class="st0" id="svg_10"/>
       <path d="m270.299988,83.400002c-6.299988,0.199997 -11.100006,1.299995 -14.399994,2.5l0,16.599998l8.799988,0l0,7.900002l-22.899979,0l0,-7.900002l5.600021,0l0,-19.400002l-5.600021,0l0,-7.900002l14.100021,0l0,3.800003c3.500031,-2.5 8.299988,-4.400002 14.399963,-4.400002l0,8.800003z" class="st0" id="svg_9"/>
       <path d="m310.600006,92.800003c0,10.699997 -8.399994,18.699997 -19,18.699997c-10.699982,0 -19,-8 -19,-18.699997c0,-10.600014 8.300018,-18.400002 19,-18.400002c10.600006,0 19,7.799995 19,18.400002zm-8.5,0c0,-5.900002 -4.5,-10.600014 -10.399994,-10.600014c-6.100006,0 -10.5,4.699997 -10.5,10.600014c0,6 4.399994,10.899986 10.5,10.899986c5.899994,-0.099998 10.399994,-4.899986 10.399994,-10.899986z" class="st0" id="svg_8"/>
       <path d="m367.700012,83.099998l-10.700012,27.200005l-7.5,0l-7.299988,-21.5l-7.400024,21.5l-7.399994,0l-10.699982,-27.300003l-3.900024,0l0,-7.900002l17.400024,0l0,7.900002l-4.800018,0l5.600006,15.199997l8,-23.099998l6,0l8.100006,23.300003l5.699982,-15.400002l-4.799988,0l0,-7.900002l17.399994,0l0,7.900002l-3.699982,0l0,0.099998z" class="st0" id="svg_7"/>
       <path d="m416.5,110.300003l-14.200012,0l0,-2.5c-2.899994,2.199997 -6.5,3.299995 -10.799988,3.299995c-9.799988,0 -17.700012,-8.199997 -17.700012,-18.400002c0,-10.199997 7.900024,-18.399986 17.700012,-18.399986c4.200012,0 7.899994,1.199997 10.799988,3.300003l0,-8.900002l-5.599976,0l0,-7.900002l14.199982,0l0,41.599998l5.600006,0l0,7.900002l0,-0.000008zm-14.200012,-10.700005l0,-13.400002c-3,-3.299995 -6.200012,-4.399986 -9.5,-4.399986c-6,0 -10.399994,5.099998 -10.399994,10.899986c0,5.900002 4.399994,11 10.399994,11c3.300018,0 6.400024,-1.099998 9.5,-4.099998z" class="st0" id="svg_6"/>
      </g>
     </g>
    </g>
   </g>
  </symbol>
 </defs>
 <g>
  <title>Layer 1</title>
  <use x="-18.80562" y="2.59388" transform="matrix(6.3791064969109765,0,0,6.3791064969109765,-1009.3909698316693,-14.488055872823539) " xlink:href="#svg_24" id="svg_25"/>
 </g>
</svg>