<?xml version="1.0" encoding="utf-8"?>
<!-- Generator: Adobe Illustrator 16.0.4, SVG Export Plug-In . SVG Version: 6.00 Build 0)  -->
<!DOCTYPE svg PUBLIC "-//W3C//DTD SVG 1.1//EN" "http://www.w3.org/Graphics/SVG/1.1/DTD/svg11.dtd">
<svg version="1.1" id="Ebene_1" xmlns:svg="http://www.w3.org/2000/svg"
	 xmlns="http://www.w3.org/2000/svg" xmlns:xlink="http://www.w3.org/1999/xlink" x="0px" y="0px" width="2511.76px"
	 height="268.391px" viewBox="0 0 2511.76 268.391" enable-background="new 0 0 2511.76 268.391" xml:space="preserve">
<title>Layer 1</title>
<g id="svg_25">
	<g id="svg_2_2_">
		<g id="svg_3_2_">
			<g id="svg_4_2_">
				<g id="svg_5_2_">
					<path id="svg_15_2_" fill="#3A3B3C" d="M143.417,247.735c-10.031,2.129-21.167,3.705-30.174,3.705
						c-30.174,0-42.865-14.288-42.865-51.872V98.996h67.757V82.579H70.378V0.001h-17.44v82.578H0v16.417h52.937v100.571
						c0,47.636,17.973,68.29,58.75,68.29c10.03,0,21.167-1.598,35.455-5.302L143.417,247.735z"/>
					<path id="svg_14_2_" fill="#3A3B3C" d="M319.179,81.003c-36.521,0-65.097,13.756-83.644,29.108V83.111H177.85v16.417h39.713
						v146.1H177.85v15.865h116.437v-15.865h-58.751V125.465c17.482-12.712,46.059-27.001,83.643-27.532V81.003z"/>
					<path id="svg_13_2_" fill="#3A3B3C" d="M522.45,246.159L522.45,246.159h-0.532V98.464l0,0V82.047h-17.482v24.894
						c-16.948-17.994-40.735-29.643-69.845-29.643c-52.405,0-94.247,42.333-94.247,94.737c0,52.938,41.842,95.291,94.247,95.291
						c29.109,0,52.405-11.115,69.845-29.643v24.34h57.688v-15.864H522.45L522.45,246.159z M504.438,216.497
						c-17.44,22.764-41.27,35.476-68.29,34.942c-43.931,0-78.32-35.986-78.32-79.404c0-42.865,34.392-78.873,78.32-78.873
						c27.021,0,50.849,12.713,68.29,35.476V216.497L504.438,216.497z"/>
					<path id="svg_12_2_" fill="#3A3B3C" d="M696.083,262.024h-0.532v-15.864h-39.713V83.111h-57.154v16.417h39.673v146.632h-39.673
						v15.864H696.083L696.083,262.024z M647.362,28.598c7.409,0,14.289-5.835,14.289-14.311C661.651,5.834,655.306,0,647.362,0
						c-8.476,0-14.821,5.834-14.821,14.288C632.542,22.764,638.888,28.598,647.362,28.598z"/>
					<path id="svg_11_2_" fill="#3A3B3C" d="M968.668,262.024h-1.064v-15.864H927.4v-89.478c0-49.743-31.238-79.386-75.168-79.386
						c-29.109,0-54.534,11.115-71.483,30.174V83.111h-57.154v16.417h39.713v146.632h-39.713v15.864h97.399v-15.864h-39.713V129.702
						c15.885-23.295,42.374-36.54,69.354-36.54c35.455,0,60.348,22.764,60.348,63.521v89.478H871.27v15.864L968.668,262.024
						L968.668,262.024z"/>
					<path id="svg_10_2_" fill="#3A3B3C" d="M1184.633,192.69L1184.633,192.69h-46.549c-4.791,19.59-22.23,32.813-44.996,32.813
						c-32.301,0-57.193-24.872-57.193-56.109s24.359-56.108,57.193-56.108c23.256,0,41.271,13.224,46.551,32.813h43.931V76.233
						h-42.333V89.99c-13.225-11.115-31.237-17.462-51.873-17.462c-57.154,0-98.996,40.758-98.996,96.866
						c0,56.109,43.396,97.398,102.722,97.398C1143.364,266.794,1178.287,236.62,1184.633,192.69L1184.633,192.69z"/>
					<path id="svg_9_2_" fill="#3A3B3C" d="M1364.61,73.06c-32.263,0-57.688,10.051-76.231,23.295V76.233h-74.637v41.82h29.641
						v102.682h-29.641v41.82h121.227v-41.82h-46.59v-87.859c17.481-6.366,42.906-12.181,76.231-13.244V73.06L1364.61,73.06z"/>
					<path id="svg_8_2_" fill="#3A3B3C" d="M1477.362,71.996c-56.622,0-100.552,41.289-100.552,97.397
						c0,56.644,43.93,98.996,100.552,98.996c56.13,0,100.592-42.354,100.592-98.996
						C1577.954,113.285,1533.492,71.996,1477.362,71.996z M1477.895,227.101c-32.303,0-55.559-25.938-55.559-57.707
						c0-31.237,23.256-56.108,55.559-56.108c31.238,0,55.064,24.871,55.064,56.108
						C1532.959,201.165,1509.133,226.569,1477.895,227.101z"/>
					<path id="svg_7_2_" fill="#3A3B3C" d="M1880.182,117.522h19.611v-41.82h-92.117v41.82h25.424l-30.174,81.515L1760.02,75.701
						h-31.729l-42.374,122.271l-29.641-80.449h25.424v-41.82h-92.117v41.82h20.635l56.663,144.502h39.182l39.14-113.796
						l38.647,113.796h39.713l56.621-143.971L1880.182,117.522L1880.182,117.522z"/>
					<path id="svg_6_2_" fill="#3A3B3C" d="M2138.521,262.024v-41.82h-29.643V0.001h-75.168v41.82h29.643v47.123
						c-15.354-11.114-34.924-17.48-57.153-17.48c-51.873,0-93.715,43.418-93.715,97.397c0,54.002,41.842,97.398,93.715,97.398
						c22.764,0,41.801-5.812,57.153-17.462v13.226H2138.521L2138.521,262.024z M2013.077,227.101
						c-31.771,0-55.064-27.001-55.064-58.239c0-30.705,23.296-57.687,55.064-57.687c17.439,0,34.392,5.812,50.274,23.274v70.931
						C2046.936,221.267,2030.518,227.101,2013.077,227.101z"/>
				</g>
			</g>
		</g>
	</g>
</g>
<text transform="matrix(1 0 0 1 2173.1152 136.3557)" fill="#9F2F25" font-family="'MyriadPro-It'" font-size="188">beta</text>
</svg>
