<?xml version="1.0" encoding="utf-8"?>
<!-- Generator: Adobe Illustrator 16.0.4, SVG Export Plug-In . SVG Version: 6.00 Build 0)  -->
<!DOCTYPE svg PUBLIC "-//W3C//DTD SVG 1.1//EN" "http://www.w3.org/Graphics/SVG/1.1/DTD/svg11.dtd">
<svg version="1.1" id="Ebene_1" xmlns:svg="http://www.w3.org/2000/svg"
	 xmlns="http://www.w3.org/2000/svg" xmlns:xlink="http://www.w3.org/1999/xlink" x="0px" y="0px" width="360px" height="170px"
	 viewBox="0 0 360 170" enable-background="new 0 0 360 170" xml:space="preserve">
<g>
	<title>Layer 1</title>
	<g id="XMLID_2_">
		<g id="XMLID_28_">
			<g id="XMLID_70_">
				<g id="XMLID_72_">
					<path id="XMLID_74_" fill="#EEE7D9" d="M199.3,48.9c-2.899,9.6-11.8,16.7-22.3,16.7s-19.5-7-22.3-16.7H145
						c2.3,11,10.2,20.1,20.6,23.9v24h22.9v-24c10.4-3.9,18.3-12.9,20.6-23.9H199.3z"/>
					<path id="XMLID_73_" fill="#EEE7D9" d="M154.6,35.6c2.9-9.6,11.8-16.7,22.3-16.7c10.5,0,19.5,7,22.3,16.7h9.7
						C205.8,20.7,192.6,9.5,176.9,9.5s-28.9,11.2-32,26.1H154.6z"/>
				</g>
				<circle id="XMLID_71_" fill="#EEE7D9" cx="176.9" cy="42.3" r="10.6"/>
			</g>
		</g>
		<g id="XMLID_3_">
			<path id="XMLID_26_" fill="#EEE7D9" d="M32.4,157.4c-2.3,0.6-3.9,0.899-5.5,0.899c-6.3,0-9.2-3.3-9.2-10.7V131.9H9.4V129.3h8.3
				V116.4h2.8V129.3H31v2.601H20.4V147.6c0,5.9,2,8.101,6.7,8.101c1.4,0,3.1-0.2,4.7-0.601L32.4,157.4L32.4,157.4z"/>
			<path id="XMLID_24_" fill="#EEE7D9" d="M59.4,131.6C53.5,131.7,49,133.9,46.3,135.9V154.8h9.2v2.5H37.2v-2.5h6.2v-23h-6.2v-2.6h9
				v4.3c2.9-2.4,7.4-4.6,13.1-4.6v2.699H59.4z"/>
			<path id="XMLID_21_" fill="#EEE7D9" d="M91.2,154.8h6.2v2.5h-9v-3.8c-2.7,2.9-6.4,4.7-11,4.7c-8.2,0-14.8-6.7-14.8-14.9
				S69.2,128.4,77.4,128.4c4.6,0,8.3,1.8,11,4.699V129.2h2.8v2.6l0,0V154.8z M88.4,150.2v-13.7c-2.8-3.6-6.5-5.5-10.7-5.5
				c-6.8,0-12.3,5.6-12.3,12.4c0,6.8,5.4,12.5,12.3,12.5C81.9,155.7,85.6,153.8,88.4,150.2L88.4,150.2z"/>
			<path id="XMLID_18_" fill="#EEE7D9" d="M118.4,157.3h-15.2v-2.5h6.2v-23h-6.2v-2.6h9v25.6h6.2V157.3z M108.5,118.5
				c0-1.3,1-2.2,2.3-2.2c1.2,0,2.3,0.9,2.3,2.2s-1,2.2-2.3,2.2C109.4,120.7,108.5,119.8,108.5,118.5z"/>
			<path id="XMLID_16_" fill="#EEE7D9" d="M161.1,157.3h-15.2v-2.5h6.2v-14c0-6.3-3.9-10-9.4-10c-4.2,0-8.4,2.101-10.8,5.7v18.2h6.2
				v2.5h-15.2v-2.5h6.2v-23h-6.2V129.1h9v3.801c2.7-3,6.7-4.7,11.2-4.7c6.9,0,11.8,4.7,11.8,12.5v14.1h6.3v2.5H161.1L161.1,157.3z"
				/>
			<path id="XMLID_14_" fill="#EEE7D9" d="M195,146.4c-1,6.899-6.5,11.6-14.4,11.6c-9.3,0-16.1-6.5-16.1-15.2
				c0-8.8,6.5-15.2,15.5-15.2c3.3,0,6,1,8.1,2.7v-2.2h6.601V139h-6.9c-0.8-3.1-3.6-5.1-7.3-5.1c-5.1,0-9,3.899-9,8.8
				c0,4.899,3.9,8.8,9,8.8c3.6,0,6.3-2,7.1-5.2h7.4V146.4L195,146.4z"/>
			<path id="XMLID_12_" fill="#EEE7D9" d="M223.2,135c-5.2,0.2-9.2,1.1-12,2.1v13.7h7.3v6.5h-19v-6.5h4.6v-16.1h-4.6v-6.5h11.7v3.1
				c2.899-2.1,6.899-3.6,12-3.6V135z"/>
			<path id="XMLID_9_" fill="#EEE7D9" d="M256.6,142.8c0,8.9-7,15.5-15.8,15.5c-8.899,0-15.8-6.6-15.8-15.5
				c0-8.8,6.9-15.3,15.8-15.3C249.7,127.5,256.6,134,256.6,142.8z M249.6,142.8c0-4.899-3.699-8.8-8.6-8.8c-5.1,0-8.7,3.9-8.7,8.8
				c0,5,3.601,9,8.7,9C245.9,151.8,249.6,147.8,249.6,142.8z"/>
			<path id="XMLID_7_" fill="#EEE7D9" d="M304,134.7l-8.9,22.6H288.9l-6-17.8l-6.101,17.8h-6.1l-8.9-22.6h-3.2v-6.5H273v6.5h-4
				l4.7,12.6l6.7-19.2h5L292.1,147.4l4.7-12.801h-4v-6.5h14.4v6.5H304V134.7z"/>
			<path id="XMLID_4_" fill="#EEE7D9" d="M344.5,157.3h-11.8v-2.1c-2.4,1.8-5.4,2.8-8.9,2.8c-8.1,0-14.7-6.8-14.7-15.3
				c0-8.4,6.5-15.2,14.7-15.2c3.5,0,6.5,1,8.9,2.7v-7.4H328v-6.5h11.8v34.5h4.7V157.3z M332.7,148.5v-11.2
				c-2.5-2.7-5.101-3.6-7.9-3.6c-5,0-8.6,4.3-8.6,9.1c0,4.9,3.6,9.101,8.6,9.101C327.6,151.8,330.2,150.9,332.7,148.5z"/>
		</g>
	</g>
</g>
<text transform="matrix(1 -0.0041 0.0041 1 256.3242 121.9033)"><tspan x="0" y="0" fill="#9F2F25" font-family="'MyriadPro-It'" font-size="36">bet</tspan><tspan x="46.475" y="0" fill="#9F2F25" font-family="'MyriadPro-It'" font-size="36">a</tspan></text>
</svg>
