<?xml version="1.0"?>
<svg width="360" height="170" xmlns="http://www.w3.org/2000/svg" xmlns:svg="http://www.w3.org/2000/svg">
 <style type="text/css">.st0{fill:#EEE7D9;}</style>
 <g>
  <title>Layer 1</title>
  <g id="XMLID_2_">
   <g id="XMLID_28_">
    <g id="XMLID_70_">
     <g id="XMLID_72_">
      <path id="XMLID_74_" class="st0" d="m199.300003,48.900002c-2.900009,9.599998 -11.800003,16.699997 -22.300003,16.699997s-19.5,-7 -22.300003,-16.699997l-9.699997,0c2.300003,11 10.199997,20.099998 20.600006,23.900002l0,24l22.899994,0l0,-24c10.399994,-3.900002 18.300003,-12.900002 20.600006,-23.900002l-9.800003,0z"/>
      <path id="XMLID_73_" class="st0" d="m154.600006,35.599998c2.900009,-9.599998 11.800003,-16.699999 22.300003,-16.699999s19.5,7 22.299988,16.699999l9.699997,0c-3.099991,-14.899998 -16.299988,-26.099998 -32,-26.099998s-28.899994,11.200001 -32,26.099998l9.700012,0z"/>
     </g>
     <circle id="XMLID_71_" class="st0" cx="176.9" cy="42.3" r="10.6"/>
    </g>
   </g>
   <g id="XMLID_3_">
    <path id="XMLID_26_" class="st0" d="m32.400002,157.399994c-2.300001,0.599991 -3.900002,0.899979 -5.500002,0.899979c-6.299999,0 -9.199999,-3.299988 -9.199999,-10.699997l0,-15.700012l-8.300001,0l0,-2.600006l8.300001,0l0,-12.899994l2.799999,0l0,12.899994l10.5,0l0,2.600006l-10.6,0l0,15.700012c0,5.899979 2,8.100021 6.700001,8.100021c1.4,0 3.1,-0.200012 4.699999,-0.600021l0.600002,2.299988l0,0.000031z"/>
    <path id="XMLID_24_" class="st0" d="m59.400002,131.600006c-5.900002,0.100021 -10.400002,2.300003 -13.100002,4.300003l0,18.899994l9.200001,0l0,2.5l-18.299999,0l0,-2.5l6.200001,0l0,-23l-6.200001,0l0,-2.599991l9,0l0,4.300003c2.899998,-2.400009 7.399998,-4.600021 13.099998,-4.600021l0,2.700012l0.100002,0z"/>
    <path id="XMLID_21_" class="st0" d="m91.199997,154.800003l6.200005,0l0,2.5l-9,0l0,-3.800003c-2.700005,2.899994 -6.400002,4.699997 -11,4.699997c-8.200005,0 -14.800003,-6.699997 -14.800003,-14.899994c0,-8.199997 6.599998,-14.900009 14.800003,-14.900009c4.599998,0 8.299995,1.800003 11,4.700012l0,-3.900009l2.799995,0l0,2.600006l0,0l0,23zm-2.799995,-4.600006l0,-13.700012c-2.800003,-3.600021 -6.5,-5.5 -10.700005,-5.5c-6.799995,0 -12.299995,5.600021 -12.299995,12.399979c0,6.800003 5.400002,12.5 12.299995,12.5c4.200005,-0.199997 7.900002,-2.099991 10.700005,-5.699997l0,0.000031z"/>
    <path id="XMLID_18_" class="st0" d="m118.400002,157.300003l-15.200005,0l0,-2.5l6.200005,0l0,-23l-6.200005,0l0,-2.600006l9,0l0,25.600006l6.200005,0l0,2.5zm-9.900002,-38.800003c0,-1.300003 1,-2.199997 2.300003,-2.199997c1.199997,0 2.299995,0.899986 2.299995,2.199997s-1,2.199997 -2.299995,2.199997c-1.400002,0 -2.300003,-0.899986 -2.300003,-2.199997z"/>
    <path id="XMLID_16_" class="st0" d="m161.100006,157.300003l-15.199997,0l0,-2.5l6.199997,0l0,-14c0,-6.300003 -3.899979,-10 -9.399979,-10c-4.200012,0 -8.400024,2.099991 -10.800003,5.699997l0,18.199997l6.200012,0l0,2.5l-15.199997,0l0,-2.5l6.199997,0l0,-23l-6.199997,0l0,-2.599991l9.000015,0l0,3.799988c2.700012,-3 6.700012,-4.699997 11.200012,-4.699997c6.900009,0 11.799988,4.699997 11.799988,12.5l0,14.100006l6.299988,0l0,2.5l-0.100006,0l-0.000031,0z"/>
    <path id="XMLID_14_" class="st0" d="m195,146.399994c-1,6.899979 -6.5,11.599991 -14.399994,11.599991c-9.300003,0 -16.100006,-6.5 -16.100006,-15.200012c0,-8.799988 6.5,-15.199989 15.5,-15.199989c3.300003,0 6,0.999992 8.100006,2.699989l0,-2.199997l6.599991,0l0,10.899979l-6.899994,0c-0.799988,-3.099991 -3.600006,-5.099991 -7.299988,-5.099991c-5.100021,0 -9,3.899994 -9,8.800003c0,4.899979 3.899979,8.799988 9,8.799988c3.600021,0 6.299988,-2 7.100021,-5.199997l7.399979,0l0,0.100006l-0.000015,0.000031z"/>
    <path id="XMLID_12_" class="st0" d="m223.199997,135c-5.199997,0.199997 -9.199997,1.100006 -12,2.100006l0,13.699997l7.300003,0l0,6.5l-19,0l0,-6.5l4.600006,0l0,-16.100006l-4.600006,0l0,-6.5l11.699997,0l0,3.100006c2.900009,-2.100006 6.900009,-3.600006 12,-3.600006l0,7.300003z"/>
    <path id="XMLID_9_" class="st0" d="m256.600006,142.800003c0,8.899994 -7,15.5 -15.800003,15.5c-8.899979,0 -15.799988,-6.600006 -15.799988,-15.5c0,-8.800003 6.899994,-15.300003 15.799988,-15.300003c8.899994,0 15.800003,6.5 15.800003,15.300003zm-7,0c0,-4.900009 -3.699997,-8.800003 -8.599991,-8.800003c-5.100006,0 -8.700012,3.899994 -8.700012,8.800003c0,5 3.600021,9 8.700012,9c4.899979,0 8.599991,-4 8.599991,-9z"/>
    <path id="XMLID_7_" class="st0" d="m304,134.699997l-8.899994,22.600006l-6.200012,0l-6,-17.799988l-6.100006,17.799988l-6.099976,0l-8.900024,-22.600006l-3.199982,0l0,-6.5l14.399994,0l0,6.5l-4,0l4.700012,12.600006l6.699982,-19.199997l5,0l6.700012,19.299988l4.699982,-12.799988l-4,0l0,-6.5l14.400024,0l0,6.5l-3.200012,0l0,0.099991z"/>
    <path id="XMLID_4_" class="st0" d="m344.5,157.300003l-11.799988,0l0,-2.100006c-2.400024,1.799988 -5.400024,2.799988 -8.900024,2.799988c-8.099976,0 -14.699982,-6.799988 -14.699982,-15.299988c0,-8.399994 6.5,-15.200005 14.699982,-15.200005c3.5,0 6.5,0.999992 8.900024,2.700005l0,-7.399994l-4.700012,0l0,-6.5l11.799988,0l0,34.5l4.700012,0l0,6.5zm-11.799988,-8.800003l0,-11.199997c-2.5,-2.699997 -5.100006,-3.600006 -7.899994,-3.600006c-5,0 -8.600006,4.299988 -8.600006,9.100006c0,4.899994 3.600006,9.099991 8.600006,9.099991c2.799988,-0.099991 5.399994,-1 7.899994,-3.399994z"/>
   </g>
  </g>
 </g>
</svg>